<svg xmlns="http://www.w3.org/2000/svg" width="20" height="20" viewBox="0 0 20 20">
  <title>type0</title>
  <g>
    <rect x="15" y="13" width="1" height="2" fill="#fff"/>
    <rect x="17" y="13" width="1" height="2" fill="#fff"/>
    <path d="M17,11c0-.908-.279-3.5-1.5-3.5C13.522,7.5,13,5.211,13,4a.5.5,0,0,1,.5-.5h0A.5.5,0,0,1,14,4c0,.025.025,2.5,1.5,2.5,2.472,0,2.5,4.316,2.5,4.5Z" fill="#fff"/>
    <path d="M15,11c0-.025-.025-2.5-1.5-2.5C11.522,8.5,11,6.211,11,5a.5.5,0,0,1,.5-.5h0A.5.5,0,0,1,12,5c0,.025.025,2.5,1.5,2.5C15.478,7.5,16,9.789,16,11Z" fill="#fff"/>
    <path d="M4,13H3a1,1,0,0,0,0,2H14V13Z" fill="#fff"/>
  </g>
</svg>
