<svg xmlns="http://www.w3.org/2000/svg" width="20" height="20" viewBox="0 0 20 20">
  <title>type0</title>
  <g>
    <path d="M9.424,4.347l-2.8,1.987A3.683,3.683,0,0,1,5,7H2.937C2.422,7,2,7.084,2,7.6v5.625c0,.516.422.775.937.775H5a3.968,3.968,0,0,1,1.733.578l2.691,1.859c.437.273.576.116.576-.4V4.788C10,4.272,9.861,4.074,9.424,4.347Z" fill="#fff"/>
    <path d="M16,11H12a.5.5,0,0,1,0-1h4a.5.5,0,0,1,0,1Z" fill="#fff"/>
    <path d="M12,8.5a.5.5,0,0,1-.224-.947l4-2a.5.5,0,0,1,.447.895l-4,2A.5.5,0,0,1,12,8.5Z" fill="#fff"/>
    <path d="M16,15.5a.5.5,0,0,1-.224-.053l-4-2a.5.5,0,0,1,.447-.895l4,2A.5.5,0,0,1,16,15.5Z" fill="#fff"/>
  </g>
</svg>
