<svg xmlns="http://www.w3.org/2000/svg" width="20" height="20" viewBox="0 0 20 20">
  <title>type0</title>
  <path d="M18.491,8.3a4.314,4.314,0,0,0-2.21-.233c.045-.151.1-.291.143-.447a2.482,2.482,0,0,0-.049-1.384,3.247,3.247,0,0,1,1.419-1.167.5.5,0,0,0-.329-.944A4.223,4.223,0,0,0,15.826,5.3a2.453,2.453,0,0,0-2.376-.725A3.212,3.212,0,0,1,13.5,3.4a.5.5,0,0,0-.956-.289,4.22,4.22,0,0,0-.04,1.892,2.472,2.472,0,0,0-.93,1.378,5.629,5.629,0,0,1-.412,1.091,3.071,3.071,0,0,1-.353-.915.5.5,0,0,0-.987.154A4.231,4.231,0,0,0,10.6,8.421a7.4,7.4,0,0,1-1.876,1.734A3.244,3.244,0,0,1,7.706,8.615a.5.5,0,0,0-.973.227,4.248,4.248,0,0,0,1.08,1.838,10.512,10.512,0,0,1-2.3.867,2.471,2.471,0,0,0-.386.118,3.151,3.151,0,0,1-.674-.872.5.5,0,0,0-.911.41,4.13,4.13,0,0,0,.717,1.006,2.5,2.5,0,0,0-.753,1.69A3.194,3.194,0,0,1,2,13.924a.5.5,0,0,0-.619.34.533.533,0,0,0,.363.638,4.226,4.226,0,0,0,1.949.047A2.5,2.5,0,0,0,5.4,16.417a3.217,3.217,0,0,1-.49,1.047.5.5,0,0,0,.071.7.533.533,0,0,0,.729-.085,4.231,4.231,0,0,0,.771-1.628,14.385,14.385,0,0,0,2.832-.939,3.233,3.233,0,0,1,.115,2.079.5.5,0,0,0,.943.331,4.282,4.282,0,0,0-.161-2.844,14.651,14.651,0,0,0,1.427-.846,3.234,3.234,0,0,1,.517,1.221.5.5,0,0,0,.991-.128,4.259,4.259,0,0,0-.7-1.683c.288-.227.572-.47.85-.732A3.255,3.255,0,0,1,14.545,14.2a.5.5,0,0,0,.911-.41A4.306,4.306,0,0,0,14,12.177a11.028,11.028,0,0,0,.8-1,3.241,3.241,0,0,1,.972.794.5.5,0,0,0,.811-.584,4.291,4.291,0,0,0-1.256-1.057,10.684,10.684,0,0,0,.56-1.137,3.249,3.249,0,0,1,2.2.014.5.5,0,0,0,.409-.912Z" fill="#fff"/>
</svg>
